<?xml version="1.0" encoding="utf-8"?><svg width="50" height="50" fill="none" xmlns="http://www.w3.org/2000/svg" viewBox="0 0 50 50"><path d="M25 50c13.807 0 25-11.193 25-25S38.807 0 25 0 0 11.193 0 25s11.193 25 25 25z" fill="#2573C2"/><path d="M41.315 18.415a3.592 3.592 0 00-.48-1.59c-.25-.5-.695-.89-1.215-1.09a3.587 3.587 0 00-1.71-.375H15.72l-1.59 4.765h20.105l-3.175 9.74h-20.1L9.37 34.63h22.295a6.16 6.16 0 001.945-.375c.625-.355 1.34-.715 1.945-1.215.59-.466 1.124-1 1.59-1.59.385-.58.713-1.194.98-1.835l2.945-9.26c.268-.61.353-1.284.245-1.94z" fill="#fff"/><path d="M22.055 22.785h-11.83l-1.59 4.405h11.95l1.47-4.405z" fill="#fff"/></svg>