<?xml version="1.0" encoding="utf-8"?><svg width="47" height="41" fill="none" xmlns="http://www.w3.org/2000/svg" viewBox="0 0 47 41"><path fill-rule="evenodd" clip-rule="evenodd" d="M35.93 0L7.954 20h31.974L35.931 0zM11.95 0l9.327 8.182L7.953 20 11.95 0z" fill="#FFE4AD"/><path d="M15.095 39.04c.064.245.096.581.096 1.008C14.743 40.016 13.88 40 12.6 40c-.587 0-1.328.016-2.224.048 0-.31.037-.64.112-.992.395-.043.661-.128.8-.256.139-.139.208-.395.208-.768 0-.117-.021-.421-.064-.912l-.512-4.896-3.136 7.792c-.213.085-.533.128-.96.128l-3.536-7.888-.432 4.304a9.2 9.2 0 00-.064 1.04c0 .533.08.901.24 1.104.16.203.432.32.816.352.064.245.096.576.096.992-.395-.032-.97-.048-1.728-.048-.49 0-1.104.016-1.84.048 0-.373.037-.704.112-.992.288-.021.517-.101.688-.24.17-.15.304-.4.4-.752.107-.352.192-.864.256-1.536l.416-4.688c.021-.277.032-.47.032-.576 0-.427-.08-.72-.24-.88-.16-.17-.432-.256-.816-.256-.075-.235-.112-.565-.112-.992.416.032 1.013.048 1.792.048.79 0 1.37-.016 1.744-.048l3.392 7.776 2.928-7.776c.48.032 1.093.048 1.84.048.704 0 1.285-.016 1.744-.048 0 .405-.037.736-.112.992-.384 0-.661.09-.832.272-.17.181-.256.501-.256.96 0 .096.01.272.032.528l.512 5.04c.064.597.133 1.04.208 1.328.085.277.197.47.336.576.15.107.368.176.656.208zm3.132-7.744c-.394 0-.714-.101-.96-.304a1.05 1.05 0 01-.368-.832c0-.373.128-.667.384-.88.267-.224.603-.336 1.008-.336.438 0 .774.107 1.008.32.246.213.368.507.368.88 0 .33-.133.608-.4.832-.256.213-.602.32-1.04.32zm-2.16 8.752c0-.427.038-.757.112-.992.427-.021.71-.123.848-.304.15-.192.224-.555.224-1.088V35.12c0-.395-.08-.672-.24-.832-.149-.17-.464-.267-.944-.288 0-.405.06-.72.176-.944.523 0 1.072-.053 1.648-.16.576-.117.987-.24 1.232-.368.31.128.464.41.464.848v4.288c0 .533.07.896.208 1.088.14.181.406.283.8.304.064.203.096.533.096.992-.458-.032-1.226-.048-2.304-.048-1.098 0-1.872.016-2.32.048zm14.286-1.216c0 .299-.053.56-.16.784a7.47 7.47 0 00-1.248.176 6 6 0 00-1.168.352.853.853 0 01-.4-.304c-.075-.139-.112-.341-.112-.608 0-.235.032-.485.096-.752-.17.32-.368.581-.592.784-.192.224-.48.427-.864.608s-.8.272-1.248.272c-.97 0-1.739-.277-2.304-.832-.565-.565-.848-1.413-.848-2.544 0-.81.181-1.536.544-2.176a3.94 3.94 0 011.552-1.52c.672-.363 1.44-.544 2.304-.544.405 0 .79.053 1.152.16V31.12c0-.395-.075-.672-.224-.832-.15-.17-.47-.267-.96-.288 0-.405.059-.72.176-.944.533 0 1.083-.053 1.648-.16.576-.107.987-.23 1.232-.368.31.128.464.41.464.848v7.92c0 .363.021.635.064.816.043.17.128.293.256.368.139.064.347.101.624.112l.016.24zm-4.944 0c.459 0 .848-.219 1.168-.656.32-.448.48-1.13.48-2.048v-2.096a1.702 1.702 0 00-.544-.4 1.349 1.349 0 00-.64-.144c-.512 0-.965.219-1.36.656-.395.427-.592 1.184-.592 2.272 0 .736.133 1.323.4 1.76.277.437.64.656 1.088.656zm13.7-.24c.011.064.017.165.017.304 0 .256-.048.496-.144.72-.875.032-1.67.208-2.384.528a.814.814 0 01-.4-.32c-.075-.15-.112-.352-.112-.608 0-.107.021-.31.064-.608-.17.395-.395.704-.672.928-.448.384-1.072.576-1.872.576-.726 0-1.285-.155-1.68-.464-.395-.31-.592-.752-.592-1.328 0-.907.427-1.552 1.28-1.936.853-.395 1.93-.683 3.232-.864 0-.47-.027-.821-.08-1.056a1.228 1.228 0 00-.272-.608 1.14 1.14 0 00-.896-.4c-.405 0-.71.17-.912.512-.192.341-.31.768-.352 1.28-.31 0-.57-.01-.784-.032a2.263 2.263 0 01-.56-.128 9.18 9.18 0 00.032-.672c0-.448-.043-.864-.128-1.248a7.577 7.577 0 011.552-.48 8.502 8.502 0 011.664-.176c1.088 0 1.877.245 2.368.736.234.235.41.56.528.976.117.405.176.965.176 1.68v1.376c0 .363.021.635.064.816.042.17.128.293.256.368.128.075.33.117.608.128zm-3.263-2.208c-.725.128-1.27.299-1.632.512-.363.213-.544.544-.544.992 0 .288.07.507.208.656a.77.77 0 00.544.208c.235 0 .459-.075.672-.224.224-.15.405-.368.544-.656.139-.299.208-.656.208-1.072v-.416zm10.013-1.648a1.87 1.87 0 01-.544.208c-.224.053-.453.08-.688.08-.053-.437-.208-.8-.464-1.088-.256-.288-.608-.432-1.056-.432-.245 0-.443.064-.592.192a.595.595 0 00-.208.48c0 .17.037.315.112.432.075.117.235.25.48.4.256.139.64.31 1.152.512.619.245 1.093.48 1.424.704.341.213.581.453.72.72.15.256.224.565.224.928 0 .715-.304 1.275-.912 1.68-.597.395-1.419.592-2.464.592-.63 0-1.163-.048-1.6-.144a6.294 6.294 0 01-1.296-.416c.043-.267.064-.608.064-1.024a7.96 7.96 0 00-.048-.96c.15-.085.341-.15.576-.192.235-.053.47-.08.704-.08.053.576.219 1.019.496 1.328.277.299.635.448 1.072.448.31 0 .56-.07.752-.208a.698.698 0 00.288-.576.758.758 0 00-.304-.624c-.203-.17-.613-.379-1.232-.624-.555-.213-.992-.421-1.312-.624a2.205 2.205 0 01-.736-.736c-.17-.299-.256-.672-.256-1.12 0-.672.288-1.184.864-1.536.576-.352 1.29-.528 2.144-.528.555 0 1.035.043 1.44.128.405.075.79.203 1.152.384-.01.139-.016.357-.016.656 0 .395.021.741.064 1.04z" fill="#FAF8F5"/></svg>