<svg width="146" height="41" viewBox="0 0 146 41" fill="none" xmlns="http://www.w3.org/2000/svg">
<path fill-rule="evenodd" clip-rule="evenodd" d="M85.9305 0L57.9531 20H89.9272L85.9305 0Z" fill="#FFE4AD"/>
<path fill-rule="evenodd" clip-rule="evenodd" d="M61.9499 0L71.277 8.18158L57.9531 20L61.9499 0Z" fill="#FFE4AD"/>
<path d="M15.4779 39.04C15.5419 39.2853 15.5739 39.6213 15.5739 40.048C15.1259 40.016 14.2619 40 12.9819 40C12.3952 40 11.6539 40.016 10.7579 40.048C10.7579 39.7387 10.7952 39.408 10.8699 39.056C11.2645 39.0133 11.5312 38.928 11.6699 38.8C11.8085 38.6613 11.8779 38.4053 11.8779 38.032C11.8779 37.9147 11.8565 37.6107 11.8139 37.12L11.3019 32.224L8.16588 40.016C7.95254 40.1013 7.63254 40.144 7.20588 40.144L3.66988 32.256L3.23788 36.56C3.19521 36.9333 3.17388 37.28 3.17388 37.6C3.17388 38.1333 3.25388 38.5013 3.41388 38.704C3.57388 38.9067 3.84588 39.024 4.22988 39.056C4.29388 39.3013 4.32588 39.632 4.32588 40.048C3.93121 40.016 3.35521 40 2.59788 40C2.10721 40 1.49388 40.016 0.757875 40.048C0.757875 39.6747 0.795208 39.344 0.869875 39.056C1.15788 39.0347 1.38721 38.9547 1.55788 38.816C1.72854 38.6667 1.86188 38.416 1.95788 38.064C2.06454 37.712 2.14988 37.2 2.21388 36.528L2.62988 31.84C2.65121 31.5627 2.66188 31.3707 2.66188 31.264C2.66188 30.8373 2.58188 30.544 2.42188 30.384C2.26188 30.2133 1.98988 30.128 1.60588 30.128C1.53121 29.8933 1.49388 29.5627 1.49388 29.136C1.90988 29.168 2.50721 29.184 3.28588 29.184C4.07521 29.184 4.65654 29.168 5.02988 29.136L8.42188 36.912L11.3499 29.136C11.8299 29.168 12.4432 29.184 13.1899 29.184C13.8939 29.184 14.4752 29.168 14.9339 29.136C14.9339 29.5413 14.8965 29.872 14.8219 30.128C14.4379 30.128 14.1605 30.2187 13.9899 30.4C13.8192 30.5813 13.7339 30.9013 13.7339 31.36C13.7339 31.456 13.7445 31.632 13.7659 31.888L14.2779 36.928C14.3419 37.5253 14.4112 37.968 14.4859 38.256C14.5712 38.5333 14.6832 38.7253 14.8219 38.832C14.9712 38.9387 15.1899 39.008 15.4779 39.04ZM18.6103 31.296C18.2156 31.296 17.8956 31.1947 17.6503 30.992C17.4049 30.7787 17.2823 30.5013 17.2823 30.16C17.2823 29.7867 17.4103 29.4933 17.6663 29.28C17.9329 29.056 18.2689 28.944 18.6743 28.944C19.1116 28.944 19.4476 29.0507 19.6823 29.264C19.9276 29.4773 20.0503 29.7707 20.0503 30.144C20.0503 30.4747 19.9169 30.752 19.6503 30.976C19.3943 31.1893 19.0476 31.296 18.6103 31.296ZM16.4503 40.048C16.4503 39.6213 16.4876 39.2907 16.5623 39.056C16.9889 39.0347 17.2716 38.9333 17.4103 38.752C17.5596 38.56 17.6343 38.1973 17.6343 37.664V35.12C17.6343 34.7253 17.5543 34.448 17.3943 34.288C17.2449 34.1173 16.9303 34.0213 16.4503 34C16.4503 33.5947 16.5089 33.28 16.6263 33.056C17.1489 33.056 17.6983 33.0027 18.2743 32.896C18.8503 32.7787 19.2609 32.656 19.5063 32.528C19.8156 32.656 19.9703 32.9387 19.9703 33.376V37.664C19.9703 38.1973 20.0396 38.56 20.1783 38.752C20.3169 38.9333 20.5836 39.0347 20.9783 39.056C21.0423 39.2587 21.0743 39.5893 21.0743 40.048C20.6156 40.016 19.8476 40 18.7703 40C17.6716 40 16.8983 40.016 16.4503 40.048ZM30.7358 38.832C30.7358 39.1307 30.6824 39.392 30.5758 39.616C30.1704 39.6373 29.7544 39.696 29.3278 39.792C28.9011 39.8773 28.5118 39.9947 28.1598 40.144C27.9784 40.0693 27.8451 39.968 27.7598 39.84C27.6851 39.7013 27.6478 39.4987 27.6478 39.232C27.6478 38.9973 27.6798 38.7467 27.7438 38.48C27.5731 38.8 27.3758 39.0613 27.1518 39.264C26.9598 39.488 26.6718 39.6907 26.2878 39.872C25.9038 40.0533 25.4878 40.144 25.0398 40.144C24.0691 40.144 23.3011 39.8667 22.7358 39.312C22.1704 38.7467 21.8878 37.8987 21.8878 36.768C21.8878 35.9573 22.0691 35.232 22.4318 34.592C22.8051 33.9413 23.3224 33.4347 23.9838 33.072C24.6558 32.7093 25.4238 32.528 26.2878 32.528C26.6931 32.528 27.0771 32.5813 27.4398 32.688V31.12C27.4398 30.7253 27.3651 30.448 27.2158 30.288C27.0664 30.1173 26.7464 30.0213 26.2558 30C26.2558 29.5947 26.3144 29.28 26.4318 29.056C26.9651 29.056 27.5144 29.0027 28.0798 28.896C28.6558 28.7893 29.0664 28.6667 29.3118 28.528C29.6211 28.656 29.7758 28.9387 29.7758 29.376V37.296C29.7758 37.6587 29.7971 37.9307 29.8398 38.112C29.8824 38.2827 29.9678 38.4053 30.0958 38.48C30.2344 38.544 30.4424 38.5813 30.7198 38.592L30.7358 38.832ZM25.7918 38.832C26.2504 38.832 26.6398 38.6133 26.9598 38.176C27.2798 37.728 27.4398 37.0453 27.4398 36.128V34.032C27.2691 33.8507 27.0878 33.7173 26.8958 33.632C26.7144 33.536 26.5011 33.488 26.2558 33.488C25.7438 33.488 25.2904 33.7067 24.8958 34.144C24.5011 34.5707 24.3038 35.328 24.3038 36.416C24.3038 37.152 24.4371 37.7387 24.7038 38.176C24.9811 38.6133 25.3438 38.832 25.7918 38.832ZM39.4926 38.592C39.5033 38.656 39.5086 38.7573 39.5086 38.896C39.5086 39.152 39.4606 39.392 39.3646 39.616C38.49 39.648 37.6953 39.824 36.9806 40.144C36.7993 40.0693 36.666 39.9627 36.5806 39.824C36.506 39.6747 36.4686 39.472 36.4686 39.216C36.4686 39.1093 36.49 38.9067 36.5326 38.608C36.362 39.0027 36.138 39.312 35.8606 39.536C35.4126 39.92 34.7886 40.112 33.9886 40.112C33.2633 40.112 32.7033 39.9573 32.3086 39.648C31.914 39.3387 31.7166 38.896 31.7166 38.32C31.7166 37.4133 32.1433 36.768 32.9966 36.384C33.85 35.9893 34.9273 35.7013 36.2286 35.52C36.2286 35.0507 36.202 34.6987 36.1486 34.464C36.106 34.2187 36.0153 34.016 35.8766 33.856C35.642 33.5893 35.3433 33.456 34.9806 33.456C34.5753 33.456 34.2713 33.6267 34.0686 33.968C33.8766 34.3093 33.7593 34.736 33.7166 35.248C33.4073 35.248 33.146 35.2373 32.9326 35.216C32.73 35.1947 32.5433 35.152 32.3726 35.088C32.394 34.8107 32.4046 34.5867 32.4046 34.416C32.4046 33.968 32.362 33.552 32.2766 33.168C32.7353 32.9653 33.2526 32.8053 33.8286 32.688C34.4153 32.5707 34.97 32.512 35.4926 32.512C36.5806 32.512 37.37 32.7573 37.8606 33.248C38.0953 33.4827 38.2713 33.808 38.3886 34.224C38.506 34.6293 38.5646 35.1893 38.5646 35.904V37.28C38.5646 37.6427 38.586 37.9147 38.6286 38.096C38.6713 38.2667 38.7566 38.3893 38.8846 38.464C39.0126 38.5387 39.2153 38.5813 39.4926 38.592ZM36.2286 36.384C35.5033 36.512 34.9593 36.6827 34.5966 36.896C34.234 37.1093 34.0526 37.44 34.0526 37.888C34.0526 38.176 34.122 38.3947 34.2606 38.544C34.41 38.6827 34.5913 38.752 34.8046 38.752C35.0393 38.752 35.2633 38.6773 35.4766 38.528C35.7006 38.3787 35.882 38.16 36.0206 37.872C36.1593 37.5733 36.2286 37.216 36.2286 36.8V36.384ZM46.2419 34.736C46.1032 34.8213 45.9219 34.8907 45.6979 34.944C45.4739 34.9973 45.2445 35.024 45.0099 35.024C44.9565 34.5867 44.8019 34.224 44.5459 33.936C44.2899 33.648 43.9379 33.504 43.4899 33.504C43.2445 33.504 43.0472 33.568 42.8979 33.696C42.7592 33.8133 42.6899 33.9733 42.6899 34.176C42.6899 34.3467 42.7272 34.4907 42.8019 34.608C42.8765 34.7253 43.0365 34.8587 43.2819 35.008C43.5379 35.1467 43.9219 35.3173 44.4339 35.52C45.0525 35.7653 45.5272 36 45.8579 36.224C46.1992 36.4373 46.4392 36.6773 46.5779 36.944C46.7272 37.2 46.8019 37.5093 46.8019 37.872C46.8019 38.5867 46.4979 39.1467 45.8899 39.552C45.2925 39.9467 44.4712 40.144 43.4259 40.144C42.7965 40.144 42.2632 40.096 41.8259 40C41.3992 39.9147 40.9672 39.776 40.5299 39.584C40.5725 39.3173 40.5939 38.976 40.5939 38.56C40.5939 38.176 40.5779 37.856 40.5459 37.6C40.6952 37.5147 40.8872 37.4507 41.1219 37.408C41.3565 37.3547 41.5912 37.328 41.8259 37.328C41.8792 37.904 42.0445 38.3467 42.3219 38.656C42.5992 38.9547 42.9565 39.104 43.3939 39.104C43.7032 39.104 43.9539 39.0347 44.1459 38.896C44.3379 38.7467 44.4339 38.5547 44.4339 38.32C44.4339 38.064 44.3325 37.856 44.1299 37.696C43.9272 37.5253 43.5165 37.3173 42.8979 37.072C42.3432 36.8587 41.9059 36.6507 41.5859 36.448C41.2659 36.2453 41.0205 36 40.8499 35.712C40.6792 35.4133 40.5939 35.04 40.5939 34.592C40.5939 33.92 40.8819 33.408 41.4579 33.056C42.0339 32.704 42.7485 32.528 43.6019 32.528C44.1565 32.528 44.6365 32.5707 45.0419 32.656C45.4472 32.7307 45.8312 32.8587 46.1939 33.04C46.1832 33.1787 46.1779 33.3973 46.1779 33.696C46.1779 34.0907 46.1992 34.4373 46.2419 34.736ZM49.6638 40.144C49.2158 40.144 48.8584 40.0213 48.5918 39.776C48.3358 39.52 48.2078 39.1787 48.2078 38.752C48.2078 38.336 48.3518 38 48.6398 37.744C48.9278 37.4773 49.2958 37.344 49.7438 37.344C50.1384 37.344 50.4638 37.4773 50.7198 37.744C50.9864 38.0107 51.1198 38.3147 51.1198 38.656C51.1198 39.0933 50.9864 39.4507 50.7198 39.728C50.4531 40.0053 50.1011 40.144 49.6638 40.144ZM53.7935 31.728C53.7935 31.2907 53.7615 30.9707 53.6975 30.768C53.6442 30.5547 53.5428 30.4053 53.3935 30.32C53.2548 30.224 53.0308 30.16 52.7215 30.128C52.6468 29.8933 52.6095 29.5627 52.6095 29.136C53.1535 29.168 53.9695 29.184 55.0575 29.184C55.9855 29.184 56.7695 29.168 57.4095 29.136C57.4095 29.3173 57.4042 29.4933 57.3935 29.664C57.3828 29.8347 57.3508 29.9893 57.2975 30.128C56.9988 30.16 56.7748 30.2187 56.6255 30.304C56.4762 30.3893 56.3695 30.5387 56.3055 30.752C56.2522 30.9653 56.2255 31.2907 56.2255 31.728V37.44C56.2255 37.8773 56.2575 38.208 56.3215 38.432C56.3855 38.6453 56.4922 38.8 56.6415 38.896C56.7908 38.9813 57.0148 39.0347 57.3135 39.056C57.3775 39.28 57.4095 39.6107 57.4095 40.048C56.8655 40.016 56.1082 40 55.1375 40C54.1135 40 53.2708 40.016 52.6095 40.048C52.6095 39.664 52.6468 39.3333 52.7215 39.056C53.0202 39.0347 53.2442 38.9813 53.3935 38.896C53.5428 38.8 53.6442 38.6453 53.6975 38.432C53.7615 38.208 53.7935 37.8773 53.7935 37.44V31.728ZM68.0301 39.056C68.1155 39.2587 68.1581 39.5893 68.1581 40.048C67.2301 40.016 66.5635 40 66.1581 40C65.1235 40 64.3555 40.016 63.8541 40.048C63.8541 39.6107 63.8968 39.28 63.9821 39.056C64.2915 39.056 64.5208 38.944 64.6701 38.72C64.8195 38.496 64.8941 38.1067 64.8941 37.552V35.872C64.8941 35.2213 64.7928 34.7627 64.5901 34.496C64.3981 34.2187 64.0995 34.08 63.6941 34.08C63.2675 34.08 62.8995 34.3093 62.5901 34.768C62.2915 35.216 62.1421 35.84 62.1421 36.64V37.664C62.1421 38.1973 62.2115 38.5653 62.3501 38.768C62.4888 38.96 62.7235 39.056 63.0541 39.056C63.1395 39.2907 63.1821 39.6213 63.1821 40.048C62.7235 40.016 61.9875 40 60.9741 40C59.8861 40 59.1021 40.016 58.6221 40.048C58.6221 39.5893 58.6648 39.2587 58.7501 39.056C59.1661 39.056 59.4435 38.96 59.5821 38.768C59.7315 38.576 59.8061 38.208 59.8061 37.664V35.296C59.8061 34.9653 59.7795 34.7147 59.7261 34.544C59.6728 34.3733 59.5661 34.2453 59.4061 34.16C59.2461 34.0747 58.9901 34.0213 58.6381 34C58.6381 33.584 58.7021 33.2693 58.8301 33.056C59.3955 33.0453 59.9448 32.992 60.4781 32.896C61.0115 32.7893 61.4115 32.6667 61.6781 32.528C61.9875 32.6453 62.1421 32.9387 62.1421 33.408C62.1421 33.696 62.0888 34.016 61.9821 34.368C62.0035 34.336 62.0515 34.2347 62.1261 34.064C62.2115 33.8827 62.3128 33.7227 62.4301 33.584C62.6861 33.3067 63.0061 33.0773 63.3901 32.896C63.7741 32.704 64.2008 32.608 64.6701 32.608C65.4061 32.608 66.0141 32.8213 66.4941 33.248C66.9848 33.664 67.2301 34.32 67.2301 35.216V37.664C67.2301 38.1867 67.2888 38.5493 67.4061 38.752C67.5235 38.9547 67.7315 39.056 68.0301 39.056ZM75.1051 32.672C75.7451 32.672 76.2731 32.656 76.6891 32.624C76.6891 33.0827 76.6305 33.4133 76.5131 33.616C76.2358 33.68 76.0171 33.8027 75.8571 33.984C75.7078 34.1653 75.5371 34.4907 75.3451 34.96L73.1531 39.952C72.8758 40.0907 72.5185 40.16 72.0811 40.16C71.9638 40.16 71.8731 40.1547 71.8091 40.144C71.5105 39.4187 71.0838 38.4533 70.5291 37.248C69.9745 36.0427 69.5531 35.1573 69.2651 34.592C69.0838 34.2293 68.9291 33.9893 68.8011 33.872C68.6731 33.7547 68.5025 33.6693 68.2891 33.616C68.1931 33.328 68.1451 32.9973 68.1451 32.624C68.6251 32.656 69.3398 32.672 70.2891 32.672C71.3558 32.672 72.1451 32.656 72.6571 32.624C72.6571 32.944 72.6038 33.2747 72.4971 33.616C72.2091 33.6373 72.0065 33.68 71.8891 33.744C71.7718 33.808 71.7131 33.904 71.7131 34.032C71.7131 34.1813 71.7825 34.3947 71.9211 34.672C72.4545 35.888 72.8598 36.896 73.1371 37.696C73.4465 36.8853 73.8091 36 74.2251 35.04C74.3745 34.656 74.4491 34.3733 74.4491 34.192C74.4491 34.0107 74.3905 33.8773 74.2731 33.792C74.1558 33.696 73.9691 33.6373 73.7131 33.616C73.5958 33.3067 73.5371 32.976 73.5371 32.624C73.9531 32.656 74.4758 32.672 75.1051 32.672ZM83.8086 38.176C83.9153 38.24 84.006 38.352 84.0806 38.512C84.166 38.672 84.214 38.8373 84.2246 39.008C83.8193 39.392 83.3606 39.68 82.8486 39.872C82.3366 40.0533 81.7446 40.144 81.0726 40.144C79.7713 40.144 78.7953 39.7973 78.1446 39.104C77.5046 38.4107 77.1846 37.504 77.1846 36.384C77.1846 35.6267 77.3393 34.96 77.6486 34.384C77.958 33.7973 78.3953 33.344 78.9606 33.024C79.526 32.6933 80.182 32.528 80.9286 32.528C82.0273 32.528 82.8486 32.8373 83.3926 33.456C83.9473 34.064 84.246 34.896 84.2886 35.952C84.2246 36.2613 84.0913 36.5173 83.8886 36.72C82.054 36.72 80.63 36.7467 79.6166 36.8C79.7126 37.4613 79.9366 37.984 80.2886 38.368C80.6406 38.7413 81.142 38.928 81.7926 38.928C82.166 38.928 82.534 38.864 82.8966 38.736C83.2593 38.5973 83.5633 38.4107 83.8086 38.176ZM80.8806 33.52C80.4966 33.52 80.182 33.712 79.9366 34.096C79.702 34.4693 79.574 35.0293 79.5526 35.776H82.0966C82.0966 35.0613 81.99 34.5067 81.7766 34.112C81.574 33.7173 81.2753 33.52 80.8806 33.52ZM91.1638 34.736C91.0251 34.8213 90.8438 34.8907 90.6198 34.944C90.3958 34.9973 90.1664 35.024 89.9318 35.024C89.8784 34.5867 89.7238 34.224 89.4678 33.936C89.2118 33.648 88.8598 33.504 88.4118 33.504C88.1664 33.504 87.9691 33.568 87.8198 33.696C87.6811 33.8133 87.6118 33.9733 87.6118 34.176C87.6118 34.3467 87.6491 34.4907 87.7238 34.608C87.7984 34.7253 87.9584 34.8587 88.2038 35.008C88.4598 35.1467 88.8438 35.3173 89.3558 35.52C89.9744 35.7653 90.4491 36 90.7798 36.224C91.1211 36.4373 91.3611 36.6773 91.4998 36.944C91.6491 37.2 91.7238 37.5093 91.7238 37.872C91.7238 38.5867 91.4198 39.1467 90.8118 39.552C90.2144 39.9467 89.3931 40.144 88.3478 40.144C87.7184 40.144 87.1851 40.096 86.7478 40C86.3211 39.9147 85.8891 39.776 85.4518 39.584C85.4944 39.3173 85.5158 38.976 85.5158 38.56C85.5158 38.176 85.4998 37.856 85.4678 37.6C85.6171 37.5147 85.8091 37.4507 86.0438 37.408C86.2784 37.3547 86.5131 37.328 86.7478 37.328C86.8011 37.904 86.9664 38.3467 87.2438 38.656C87.5211 38.9547 87.8784 39.104 88.3158 39.104C88.6251 39.104 88.8758 39.0347 89.0677 38.896C89.2598 38.7467 89.3558 38.5547 89.3558 38.32C89.3558 38.064 89.2544 37.856 89.0518 37.696C88.8491 37.5253 88.4384 37.3173 87.8198 37.072C87.2651 36.8587 86.8278 36.6507 86.5078 36.448C86.1878 36.2453 85.9424 36 85.7718 35.712C85.6011 35.4133 85.5158 35.04 85.5158 34.592C85.5158 33.92 85.8038 33.408 86.3798 33.056C86.9558 32.704 87.6704 32.528 88.5238 32.528C89.0784 32.528 89.5584 32.5707 89.9638 32.656C90.3691 32.7307 90.7531 32.8587 91.1158 33.04C91.1051 33.1787 91.0998 33.3973 91.0998 33.696C91.0998 34.0907 91.1211 34.4373 91.1638 34.736ZM95.7098 40.144C94.9418 40.144 94.3711 39.9467 93.9978 39.552C93.6351 39.1573 93.4538 38.5067 93.4538 37.6V34.048C93.1444 33.92 92.7551 33.8507 92.2858 33.84C92.2858 33.4453 92.3444 33.1093 92.4618 32.832H93.4538V30.864C93.8058 30.8213 94.1578 30.7253 94.5098 30.576C94.8724 30.4267 95.1658 30.2613 95.3898 30.08C95.5498 30.144 95.6564 30.24 95.7098 30.368C95.7631 30.496 95.7898 30.7307 95.7898 31.072V32.832H97.7578C97.7578 33.1733 97.7044 33.5147 97.5978 33.856C96.8831 33.8773 96.2804 33.9627 95.7898 34.112V37.344C95.7898 37.9733 95.8538 38.4053 95.9818 38.64C96.1098 38.8747 96.3231 38.992 96.6218 38.992C96.9738 38.992 97.2991 38.9013 97.5978 38.72C97.7364 38.912 97.8164 39.1787 97.8378 39.52C97.6244 39.7013 97.3151 39.8507 96.9098 39.968C96.5151 40.0853 96.1151 40.144 95.7098 40.144ZM113.053 39.056C113.138 39.312 113.181 39.6427 113.181 40.048C112.818 40.016 112.141 40 111.149 40C110.199 40 109.442 40.016 108.877 40.048C108.877 39.6533 108.914 39.3227 108.989 39.056C109.223 39.0347 109.405 38.976 109.533 38.88C109.671 38.784 109.767 38.6133 109.821 38.368C109.885 38.1227 109.917 37.7707 109.917 37.312V35.84C109.917 35.1893 109.821 34.736 109.629 34.48C109.437 34.2133 109.159 34.08 108.797 34.08C108.327 34.08 107.943 34.304 107.645 34.752C107.357 35.1893 107.213 35.8187 107.213 36.64V37.6C107.213 38.1547 107.277 38.5333 107.405 38.736C107.533 38.928 107.783 39.0347 108.157 39.056C108.242 39.2693 108.285 39.6 108.285 40.048C107.933 40.016 107.197 40 106.077 40C104.967 40 104.221 40.016 103.837 40.048C103.837 39.6107 103.879 39.28 103.965 39.056C104.231 39.0347 104.429 38.9813 104.557 38.896C104.685 38.8 104.775 38.6293 104.829 38.384C104.882 38.128 104.909 37.744 104.909 37.232V35.712C104.909 35.104 104.807 34.6773 104.605 34.432C104.413 34.176 104.119 34.048 103.725 34.048C103.447 34.048 103.191 34.1547 102.957 34.368C102.722 34.5707 102.535 34.864 102.397 35.248C102.258 35.632 102.189 36.0853 102.189 36.608V37.6C102.189 37.984 102.215 38.2773 102.269 38.48C102.322 38.6827 102.413 38.8267 102.541 38.912C102.669 38.9867 102.861 39.0347 103.117 39.056C103.202 39.3013 103.245 39.632 103.245 40.048C102.903 40.016 102.13 40 100.925 40C99.7513 40 99.0046 40.016 98.6846 40.048C98.6846 39.632 98.7273 39.3013 98.8126 39.056C99.1113 39.0347 99.33 38.9867 99.4686 38.912C99.618 38.8267 99.7193 38.6933 99.7726 38.512C99.8366 38.32 99.8686 38.0373 99.8686 37.664V35.424C99.8686 35.04 99.842 34.7573 99.7886 34.576C99.746 34.384 99.6393 34.2453 99.4686 34.16C99.3086 34.0747 99.0526 34.0213 98.7006 34C98.7006 33.616 98.7646 33.3013 98.8926 33.056C99.3833 33.056 99.906 33.0027 100.461 32.896C101.026 32.7893 101.442 32.6667 101.709 32.528C101.847 32.5707 101.959 32.6667 102.045 32.816C102.13 32.9547 102.173 33.1413 102.173 33.376C102.173 33.568 102.125 33.8987 102.029 34.368C102.21 33.952 102.365 33.68 102.493 33.552C102.738 33.264 103.053 33.024 103.437 32.832C103.821 32.64 104.242 32.544 104.701 32.544C105.213 32.544 105.666 32.6507 106.061 32.864C106.455 33.0773 106.749 33.3973 106.941 33.824C107.037 33.9947 107.09 34.1653 107.101 34.336C107.25 34.016 107.415 33.7547 107.597 33.552C107.831 33.2853 108.13 33.0667 108.493 32.896C108.855 32.7253 109.255 32.64 109.693 32.64C110.503 32.64 111.127 32.8587 111.565 33.296C112.013 33.7227 112.237 34.4107 112.237 35.36V37.232C112.237 37.7653 112.258 38.1547 112.301 38.4C112.343 38.6453 112.418 38.8107 112.525 38.896C112.642 38.9813 112.818 39.0347 113.053 39.056ZM120.59 38.176C120.697 38.24 120.787 38.352 120.862 38.512C120.947 38.672 120.995 38.8373 121.006 39.008C120.601 39.392 120.142 39.68 119.63 39.872C119.118 40.0533 118.526 40.144 117.854 40.144C116.553 40.144 115.577 39.7973 114.926 39.104C114.286 38.4107 113.966 37.504 113.966 36.384C113.966 35.6267 114.121 34.96 114.43 34.384C114.739 33.7973 115.177 33.344 115.742 33.024C116.307 32.6933 116.963 32.528 117.71 32.528C118.809 32.528 119.63 32.8373 120.174 33.456C120.729 34.064 121.027 34.896 121.07 35.952C121.006 36.2613 120.873 36.5173 120.67 36.72C118.835 36.72 117.411 36.7467 116.398 36.8C116.494 37.4613 116.718 37.984 117.07 38.368C117.422 38.7413 117.923 38.928 118.574 38.928C118.947 38.928 119.315 38.864 119.678 38.736C120.041 38.5973 120.345 38.4107 120.59 38.176ZM117.662 33.52C117.278 33.52 116.963 33.712 116.718 34.096C116.483 34.4693 116.355 35.0293 116.334 35.776H118.878C118.878 35.0613 118.771 34.5067 118.558 34.112C118.355 33.7173 118.057 33.52 117.662 33.52ZM131.577 39.056C131.662 39.2587 131.705 39.5893 131.705 40.048C130.777 40.016 130.11 40 129.705 40C128.67 40 127.902 40.016 127.401 40.048C127.401 39.6107 127.444 39.28 127.529 39.056C127.838 39.056 128.068 38.944 128.217 38.72C128.366 38.496 128.441 38.1067 128.441 37.552V35.872C128.441 35.2213 128.34 34.7627 128.137 34.496C127.945 34.2187 127.646 34.08 127.241 34.08C126.814 34.08 126.446 34.3093 126.137 34.768C125.838 35.216 125.689 35.84 125.689 36.64V37.664C125.689 38.1973 125.758 38.5653 125.897 38.768C126.036 38.96 126.27 39.056 126.601 39.056C126.686 39.2907 126.729 39.6213 126.729 40.048C126.27 40.016 125.534 40 124.521 40C123.433 40 122.649 40.016 122.169 40.048C122.169 39.5893 122.212 39.2587 122.297 39.056C122.713 39.056 122.99 38.96 123.129 38.768C123.278 38.576 123.353 38.208 123.353 37.664V35.296C123.353 34.9653 123.326 34.7147 123.273 34.544C123.22 34.3733 123.113 34.2453 122.953 34.16C122.793 34.0747 122.537 34.0213 122.185 34C122.185 33.584 122.249 33.2693 122.377 33.056C122.942 33.0453 123.492 32.992 124.025 32.896C124.558 32.7893 124.958 32.6667 125.225 32.528C125.534 32.6453 125.689 32.9387 125.689 33.408C125.689 33.696 125.636 34.016 125.529 34.368C125.55 34.336 125.598 34.2347 125.673 34.064C125.758 33.8827 125.86 33.7227 125.977 33.584C126.233 33.3067 126.553 33.0773 126.937 32.896C127.321 32.704 127.748 32.608 128.217 32.608C128.953 32.608 129.561 32.8213 130.041 33.248C130.532 33.664 130.777 34.32 130.777 35.216V37.664C130.777 38.1867 130.836 38.5493 130.953 38.752C131.07 38.9547 131.278 39.056 131.577 39.056ZM135.725 40.144C134.957 40.144 134.387 39.9467 134.013 39.552C133.651 39.1573 133.469 38.5067 133.469 37.6V34.048C133.16 33.92 132.771 33.8507 132.301 33.84C132.301 33.4453 132.36 33.1093 132.477 32.832H133.469V30.864C133.821 30.8213 134.173 30.7253 134.525 30.576C134.888 30.4267 135.181 30.2613 135.405 30.08C135.565 30.144 135.672 30.24 135.725 30.368C135.779 30.496 135.805 30.7307 135.805 31.072V32.832H137.773C137.773 33.1733 137.72 33.5147 137.613 33.856C136.899 33.8773 136.296 33.9627 135.805 34.112V37.344C135.805 37.9733 135.869 38.4053 135.997 38.64C136.125 38.8747 136.339 38.992 136.637 38.992C136.989 38.992 137.315 38.9013 137.613 38.72C137.752 38.912 137.832 39.1787 137.853 39.52C137.64 39.7013 137.331 39.8507 136.925 39.968C136.531 40.0853 136.131 40.144 135.725 40.144ZM144.476 34.736C144.338 34.8213 144.156 34.8907 143.932 34.944C143.708 34.9973 143.479 35.024 143.244 35.024C143.191 34.5867 143.036 34.224 142.78 33.936C142.524 33.648 142.172 33.504 141.724 33.504C141.479 33.504 141.282 33.568 141.132 33.696C140.994 33.8133 140.924 33.9733 140.924 34.176C140.924 34.3467 140.962 34.4907 141.036 34.608C141.111 34.7253 141.271 34.8587 141.516 35.008C141.772 35.1467 142.156 35.3173 142.668 35.52C143.287 35.7653 143.762 36 144.092 36.224C144.434 36.4373 144.674 36.6773 144.812 36.944C144.962 37.2 145.036 37.5093 145.036 37.872C145.036 38.5867 144.732 39.1467 144.124 39.552C143.527 39.9467 142.706 40.144 141.66 40.144C141.031 40.144 140.498 40.096 140.06 40C139.634 39.9147 139.202 39.776 138.764 39.584C138.807 39.3173 138.828 38.976 138.828 38.56C138.828 38.176 138.812 37.856 138.78 37.6C138.93 37.5147 139.122 37.4507 139.356 37.408C139.591 37.3547 139.826 37.328 140.06 37.328C140.114 37.904 140.279 38.3467 140.556 38.656C140.834 38.9547 141.191 39.104 141.628 39.104C141.938 39.104 142.188 39.0347 142.38 38.896C142.572 38.7467 142.668 38.5547 142.668 38.32C142.668 38.064 142.567 37.856 142.364 37.696C142.162 37.5253 141.751 37.3173 141.132 37.072C140.578 36.8587 140.14 36.6507 139.82 36.448C139.5 36.2453 139.255 36 139.084 35.712C138.914 35.4133 138.828 35.04 138.828 34.592C138.828 33.92 139.116 33.408 139.692 33.056C140.268 32.704 140.983 32.528 141.836 32.528C142.391 32.528 142.871 32.5707 143.276 32.656C143.682 32.7307 144.066 32.8587 144.428 33.04C144.418 33.1787 144.412 33.3973 144.412 33.696C144.412 34.0907 144.434 34.4373 144.476 34.736Z" fill="#FAF8F5"/>
</svg>
