<svg width="11" height="7" viewBox="0 0 11 7" fill="none" xmlns="http://www.w3.org/2000/svg">
<path d="M5.56359 6.55083L5.56344 6.55066L0.91704 1.34183L5.56359 6.55083ZM5.56359 6.55083C5.80091 6.81639 6.19909 6.81639 6.43641 6.55083L6.43656 6.55066M5.56359 6.55083L6.43656 6.55066M6.43656 6.55066L11.083 1.34183L6.43656 6.55066ZM11.25 0.895499C11.25 1.05819 11.196 1.21523 11.0831 1.34166L11.25 0.895499ZM11.25 0.895499C11.25 0.732737 11.196 0.575624 11.083 0.449166C10.8456 0.183612 10.4475 0.183612 10.2101 0.449167L6 5.16019M11.25 0.895499L6 5.16019M6 5.16019L1.78986 0.449167C1.55254 0.183612 1.15436 0.183612 0.91704 0.449167C0.694371 0.698328 0.69432 1.09243 0.916886 1.34166L6 5.16019Z" fill="#717F94" stroke="#717F94" stroke-width="0.5"/>
</svg>
