<svg width="47" height="41" viewBox="0 0 47 41" fill="none" xmlns="http://www.w3.org/2000/svg">
<path fill-rule="evenodd" clip-rule="evenodd" d="M35.9305 0L7.95312 20H39.9272L35.9305 0Z" fill="#FFE4AD"/>
<path fill-rule="evenodd" clip-rule="evenodd" d="M11.9499 0L21.277 8.18158L7.95312 20L11.9499 0Z" fill="#FFE4AD"/>
<path d="M15.0951 39.04C15.1591 39.2853 15.1911 39.6213 15.1911 40.048C14.7431 40.016 13.8791 40 12.5991 40C12.0124 40 11.2711 40.016 10.3751 40.048C10.3751 39.7387 10.4124 39.408 10.4871 39.056C10.8817 39.0133 11.1484 38.928 11.2871 38.8C11.4257 38.6613 11.4951 38.4053 11.4951 38.032C11.4951 37.9147 11.4737 37.6107 11.4311 37.12L10.9191 32.224L7.78306 40.016C7.56973 40.1013 7.24973 40.144 6.82306 40.144L3.28706 32.256L2.85506 36.56C2.8124 36.9333 2.79106 37.28 2.79106 37.6C2.79106 38.1333 2.87106 38.5013 3.03106 38.704C3.19106 38.9067 3.46306 39.024 3.84706 39.056C3.91106 39.3013 3.94306 39.632 3.94306 40.048C3.5484 40.016 2.9724 40 2.21506 40C1.7244 40 1.11106 40.016 0.375063 40.048C0.375063 39.6747 0.412396 39.344 0.487063 39.056C0.775063 39.0347 1.0044 38.9547 1.17506 38.816C1.34573 38.6667 1.47906 38.416 1.57506 38.064C1.68173 37.712 1.76706 37.2 1.83106 36.528L2.24706 31.84C2.2684 31.5627 2.27906 31.3707 2.27906 31.264C2.27906 30.8373 2.19906 30.544 2.03906 30.384C1.87906 30.2133 1.60706 30.128 1.22306 30.128C1.1484 29.8933 1.11106 29.5627 1.11106 29.136C1.52706 29.168 2.1244 29.184 2.90306 29.184C3.6924 29.184 4.27373 29.168 4.64706 29.136L8.03906 36.912L10.9671 29.136C11.4471 29.168 12.0604 29.184 12.8071 29.184C13.5111 29.184 14.0924 29.168 14.5511 29.136C14.5511 29.5413 14.5137 29.872 14.4391 30.128C14.0551 30.128 13.7777 30.2187 13.6071 30.4C13.4364 30.5813 13.3511 30.9013 13.3511 31.36C13.3511 31.456 13.3617 31.632 13.3831 31.888L13.8951 36.928C13.9591 37.5253 14.0284 37.968 14.1031 38.256C14.1884 38.5333 14.3004 38.7253 14.4391 38.832C14.5884 38.9387 14.8071 39.008 15.0951 39.04ZM18.2274 31.296C17.8328 31.296 17.5128 31.1947 17.2674 30.992C17.0221 30.7787 16.8994 30.5013 16.8994 30.16C16.8994 29.7867 17.0274 29.4933 17.2834 29.28C17.5501 29.056 17.8861 28.944 18.2914 28.944C18.7288 28.944 19.0648 29.0507 19.2994 29.264C19.5448 29.4773 19.6674 29.7707 19.6674 30.144C19.6674 30.4747 19.5341 30.752 19.2674 30.976C19.0114 31.1893 18.6648 31.296 18.2274 31.296ZM16.0674 40.048C16.0674 39.6213 16.1048 39.2907 16.1794 39.056C16.6061 39.0347 16.8888 38.9333 17.0274 38.752C17.1768 38.56 17.2514 38.1973 17.2514 37.664V35.12C17.2514 34.7253 17.1714 34.448 17.0114 34.288C16.8621 34.1173 16.5474 34.0213 16.0674 34C16.0674 33.5947 16.1261 33.28 16.2434 33.056C16.7661 33.056 17.3154 33.0027 17.8914 32.896C18.4674 32.7787 18.8781 32.656 19.1234 32.528C19.4328 32.656 19.5874 32.9387 19.5874 33.376V37.664C19.5874 38.1973 19.6568 38.56 19.7954 38.752C19.9341 38.9333 20.2008 39.0347 20.5954 39.056C20.6594 39.2587 20.6914 39.5893 20.6914 40.048C20.2328 40.016 19.4648 40 18.3874 40C17.2888 40 16.5154 40.016 16.0674 40.048ZM30.3529 38.832C30.3529 39.1307 30.2996 39.392 30.1929 39.616C29.7876 39.6373 29.3716 39.696 28.9449 39.792C28.5183 39.8773 28.1289 39.9947 27.7769 40.144C27.5956 40.0693 27.4623 39.968 27.3769 39.84C27.3023 39.7013 27.2649 39.4987 27.2649 39.232C27.2649 38.9973 27.2969 38.7467 27.3609 38.48C27.1903 38.8 26.9929 39.0613 26.7689 39.264C26.5769 39.488 26.2889 39.6907 25.9049 39.872C25.5209 40.0533 25.1049 40.144 24.6569 40.144C23.6863 40.144 22.9183 39.8667 22.3529 39.312C21.7876 38.7467 21.5049 37.8987 21.5049 36.768C21.5049 35.9573 21.6863 35.232 22.0489 34.592C22.4223 33.9413 22.9396 33.4347 23.6009 33.072C24.2729 32.7093 25.0409 32.528 25.9049 32.528C26.3103 32.528 26.6943 32.5813 27.0569 32.688V31.12C27.0569 30.7253 26.9823 30.448 26.8329 30.288C26.6836 30.1173 26.3636 30.0213 25.8729 30C25.8729 29.5947 25.9316 29.28 26.0489 29.056C26.5823 29.056 27.1316 29.0027 27.6969 28.896C28.2729 28.7893 28.6836 28.6667 28.9289 28.528C29.2383 28.656 29.3929 28.9387 29.3929 29.376V37.296C29.3929 37.6587 29.4143 37.9307 29.4569 38.112C29.4996 38.2827 29.5849 38.4053 29.7129 38.48C29.8516 38.544 30.0596 38.5813 30.3369 38.592L30.3529 38.832ZM25.4089 38.832C25.8676 38.832 26.2569 38.6133 26.5769 38.176C26.8969 37.728 27.0569 37.0453 27.0569 36.128V34.032C26.8863 33.8507 26.7049 33.7173 26.5129 33.632C26.3316 33.536 26.1183 33.488 25.8729 33.488C25.3609 33.488 24.9076 33.7067 24.5129 34.144C24.1183 34.5707 23.9209 35.328 23.9209 36.416C23.9209 37.152 24.0543 37.7387 24.3209 38.176C24.5983 38.6133 24.9609 38.832 25.4089 38.832ZM39.1098 38.592C39.1205 38.656 39.1258 38.7573 39.1258 38.896C39.1258 39.152 39.0778 39.392 38.9818 39.616C38.1071 39.648 37.3125 39.824 36.5978 40.144C36.4165 40.0693 36.2831 39.9627 36.1978 39.824C36.1231 39.6747 36.0858 39.472 36.0858 39.216C36.0858 39.1093 36.1071 38.9067 36.1498 38.608C35.9791 39.0027 35.7551 39.312 35.4778 39.536C35.0298 39.92 34.4058 40.112 33.6058 40.112C32.8805 40.112 32.3205 39.9573 31.9258 39.648C31.5311 39.3387 31.3338 38.896 31.3338 38.32C31.3338 37.4133 31.7605 36.768 32.6138 36.384C33.4671 35.9893 34.5445 35.7013 35.8458 35.52C35.8458 35.0507 35.8191 34.6987 35.7658 34.464C35.7231 34.2187 35.6325 34.016 35.4938 33.856C35.2591 33.5893 34.9605 33.456 34.5978 33.456C34.1925 33.456 33.8885 33.6267 33.6858 33.968C33.4938 34.3093 33.3765 34.736 33.3338 35.248C33.0245 35.248 32.7631 35.2373 32.5498 35.216C32.3471 35.1947 32.1605 35.152 31.9898 35.088C32.0111 34.8107 32.0218 34.5867 32.0218 34.416C32.0218 33.968 31.9791 33.552 31.8938 33.168C32.3525 32.9653 32.8698 32.8053 33.4458 32.688C34.0325 32.5707 34.5871 32.512 35.1098 32.512C36.1978 32.512 36.9871 32.7573 37.4778 33.248C37.7125 33.4827 37.8885 33.808 38.0058 34.224C38.1231 34.6293 38.1818 35.1893 38.1818 35.904V37.28C38.1818 37.6427 38.2031 37.9147 38.2458 38.096C38.2885 38.2667 38.3738 38.3893 38.5018 38.464C38.6298 38.5387 38.8325 38.5813 39.1098 38.592ZM35.8458 36.384C35.1205 36.512 34.5765 36.6827 34.2138 36.896C33.8511 37.1093 33.6698 37.44 33.6698 37.888C33.6698 38.176 33.7391 38.3947 33.8778 38.544C34.0271 38.6827 34.2085 38.752 34.4218 38.752C34.6565 38.752 34.8805 38.6773 35.0938 38.528C35.3178 38.3787 35.4991 38.16 35.6378 37.872C35.7765 37.5733 35.8458 37.216 35.8458 36.8V36.384ZM45.8591 34.736C45.7204 34.8213 45.5391 34.8907 45.3151 34.944C45.0911 34.9973 44.8617 35.024 44.6271 35.024C44.5737 34.5867 44.4191 34.224 44.1631 33.936C43.9071 33.648 43.5551 33.504 43.1071 33.504C42.8617 33.504 42.6644 33.568 42.5151 33.696C42.3764 33.8133 42.3071 33.9733 42.3071 34.176C42.3071 34.3467 42.3444 34.4907 42.4191 34.608C42.4937 34.7253 42.6537 34.8587 42.8991 35.008C43.1551 35.1467 43.5391 35.3173 44.0511 35.52C44.6697 35.7653 45.1444 36 45.4751 36.224C45.8164 36.4373 46.0564 36.6773 46.1951 36.944C46.3444 37.2 46.4191 37.5093 46.4191 37.872C46.4191 38.5867 46.1151 39.1467 45.5071 39.552C44.9097 39.9467 44.0884 40.144 43.0431 40.144C42.4137 40.144 41.8804 40.096 41.4431 40C41.0164 39.9147 40.5844 39.776 40.1471 39.584C40.1897 39.3173 40.2111 38.976 40.2111 38.56C40.2111 38.176 40.1951 37.856 40.1631 37.6C40.3124 37.5147 40.5044 37.4507 40.7391 37.408C40.9737 37.3547 41.2084 37.328 41.4431 37.328C41.4964 37.904 41.6617 38.3467 41.9391 38.656C42.2164 38.9547 42.5737 39.104 43.0111 39.104C43.3204 39.104 43.5711 39.0347 43.7631 38.896C43.9551 38.7467 44.0511 38.5547 44.0511 38.32C44.0511 38.064 43.9497 37.856 43.7471 37.696C43.5444 37.5253 43.1337 37.3173 42.5151 37.072C41.9604 36.8587 41.5231 36.6507 41.2031 36.448C40.8831 36.2453 40.6377 36 40.4671 35.712C40.2964 35.4133 40.2111 35.04 40.2111 34.592C40.2111 33.92 40.4991 33.408 41.0751 33.056C41.6511 32.704 42.3657 32.528 43.2191 32.528C43.7737 32.528 44.2537 32.5707 44.6591 32.656C45.0644 32.7307 45.4484 32.8587 45.8111 33.04C45.8004 33.1787 45.7951 33.3973 45.7951 33.696C45.7951 34.0907 45.8164 34.4373 45.8591 34.736Z" fill="#FAF8F5"/>
</svg>
