<?xml version="1.0" encoding="utf-8"?><svg viewBox="0 0 146 50" xmlns="http://www.w3.org/2000/svg" xmlns:xlink="http://www.w3.org/1999/xlink"><style>:root>svg{display:none}:root>svg:target{display:block}</style><svg fill="none" viewBox="0 0 20 20" id="icon-clouse" xmlns="http://www.w3.org/2000/svg"><path fill-rule="evenodd" clip-rule="evenodd" d="M17.894 19.308L0 1.414 1.414 0l17.894 17.893-1.414 1.415z" fill="#fff"/><path fill-rule="evenodd" clip-rule="evenodd" d="M19.385 1.414L1.49 19.308.077 17.893 17.971 0l1.414 1.414z" fill="#fff"/></svg><svg fill="none" viewBox="0 0 50 50" id="icon-dash" xmlns="http://www.w3.org/2000/svg"><path d="M25 50c13.807 0 25-11.193 25-25S38.807 0 25 0 0 11.193 0 25s11.193 25 25 25z" fill="#2573C2"/><path d="M41.315 18.415a3.592 3.592 0 00-.48-1.59c-.25-.5-.695-.89-1.215-1.09a3.587 3.587 0 00-1.71-.375H15.72l-1.59 4.765h20.105l-3.175 9.74h-20.1L9.37 34.63h22.295a6.16 6.16 0 001.945-.375c.625-.355 1.34-.715 1.945-1.215.59-.466 1.124-1 1.59-1.59.385-.58.713-1.194.98-1.835l2.945-9.26c.268-.61.353-1.284.245-1.94z" fill="#fff"/><path d="M22.055 22.785h-11.83l-1.59 4.405h11.95l1.47-4.405z" fill="#fff"/></svg><svg fill="none" viewBox="0 0 25 22" id="icon-menu" xmlns="http://www.w3.org/2000/svg"><path d="M1.064.927l23 .146-.013 2-23-.147.013-2zM1.007 9.926l15 .096-.013 2-15-.096.013-2zM.95 18.926l19.999.128-.013 2-20-.128.013-2z" fill="#fff"/></svg><svg fill="none" viewBox="0 0 11 7" id="icon-shavron" xmlns="http://www.w3.org/2000/svg"><path d="M5.564 6.55h0L.916 1.343 5.564 6.55zm0 0a.578.578 0 00.872 0h0m-.872 0h.873m0 0l4.646-5.208L6.437 6.55zM11.25.896a.66.66 0 01-.167.447l.167-.447zm0 0a.66.66 0 00-.167-.446.578.578 0 00-.873 0L6 5.16M11.25.895L6 5.16m0 0L1.79.45a.578.578 0 00-.873 0 .68.68 0 000 .892L6 5.16z" fill="#717F94" stroke="#717F94" stroke-width=".5"/></svg><svg fill="none" viewBox="0 0 8 12" id="icon-up" xmlns="http://www.w3.org/2000/svg"><path fill-rule="evenodd" clip-rule="evenodd" d="M3.328.646a.5.5 0 01.708 0l3.182 3.182a.5.5 0 11-.708.708L4.182 2.207V11.5h-1V2.207L.854 4.536a.5.5 0 11-.708-.708L3.328.646z" fill="#00D98B"/></svg><svg fill="none" viewBox="0 0 146 41" id="logo" xmlns="http://www.w3.org/2000/svg"><path fill-rule="evenodd" clip-rule="evenodd" d="M85.93 0L57.953 20h31.974L85.93 0zM61.95 0l9.327 8.182L57.953 20 61.95 0z" fill="#FFE4AD"/><path d="M15.478 39.04c.064.245.096.581.096 1.008-.448-.032-1.312-.048-2.592-.048-.587 0-1.328.016-2.224.048 0-.31.037-.64.112-.992.395-.043.661-.128.8-.256.139-.139.208-.395.208-.768 0-.117-.021-.421-.064-.912l-.512-4.896-3.136 7.792c-.213.085-.533.128-.96.128L3.67 32.256l-.432 4.304c-.043.373-.064.72-.064 1.04 0 .533.08.901.24 1.104.16.203.432.32.816.352.064.245.096.576.096.992A23.11 23.11 0 002.598 40c-.49 0-1.104.016-1.84.048 0-.373.037-.704.112-.992.288-.021.517-.101.688-.24.17-.15.304-.4.4-.752.107-.352.192-.864.256-1.536l.416-4.688a8.91 8.91 0 00.032-.576c0-.427-.08-.72-.24-.88-.16-.17-.432-.256-.816-.256-.075-.235-.112-.565-.112-.992.416.032 1.013.048 1.792.048.79 0 1.37-.016 1.744-.048l3.392 7.776 2.928-7.776c.48.032 1.093.048 1.84.048.704 0 1.285-.016 1.744-.048 0 .405-.037.736-.112.992-.384 0-.661.09-.832.272-.17.181-.256.501-.256.96 0 .096.01.272.032.528l.512 5.04c.064.597.133 1.04.208 1.328.085.277.197.47.336.576.15.107.368.176.656.208zm3.132-7.744c-.394 0-.714-.101-.96-.304a1.05 1.05 0 01-.368-.832c0-.373.128-.667.384-.88.267-.224.603-.336 1.008-.336.438 0 .774.107 1.008.32.246.213.368.507.368.88 0 .33-.133.608-.4.832-.256.213-.602.32-1.04.32zm-2.16 8.752c0-.427.038-.757.112-.992.427-.021.71-.123.848-.304.15-.192.224-.555.224-1.088V35.12c0-.395-.08-.672-.24-.832-.15-.17-.464-.267-.944-.288 0-.405.059-.72.176-.944.523 0 1.072-.053 1.648-.16.576-.117.987-.24 1.232-.368.31.128.464.41.464.848v4.288c0 .533.07.896.208 1.088.139.181.406.283.8.304.064.203.096.533.096.992-.458-.032-1.226-.048-2.304-.048-1.098 0-1.872.016-2.32.048zm14.286-1.216c0 .299-.054.56-.16.784-.406.021-.822.08-1.248.176a5.998 5.998 0 00-1.168.352.852.852 0 01-.4-.304c-.075-.139-.112-.341-.112-.608 0-.235.032-.485.096-.752-.17.32-.368.581-.592.784-.192.224-.48.427-.864.608s-.8.272-1.248.272c-.97 0-1.739-.277-2.304-.832-.566-.565-.848-1.413-.848-2.544 0-.81.181-1.536.544-2.176.373-.65.89-1.157 1.552-1.52.672-.363 1.44-.544 2.304-.544.405 0 .79.053 1.152.16V31.12c0-.395-.075-.672-.224-.832-.15-.17-.47-.267-.96-.288 0-.405.058-.72.176-.944a8.88 8.88 0 001.648-.16c.576-.107.986-.23 1.232-.368.31.128.464.41.464.848v7.92c0 .363.021.635.064.816.042.17.128.293.256.368.138.064.346.101.624.112l.016.24zm-4.944 0c.458 0 .848-.219 1.168-.656.32-.448.48-1.13.48-2.048v-2.096a1.703 1.703 0 00-.544-.4 1.35 1.35 0 00-.64-.144c-.512 0-.966.219-1.36.656-.395.427-.592 1.184-.592 2.272 0 .736.133 1.323.4 1.76.277.437.64.656 1.088.656zm13.7-.24c.011.064.017.165.017.304 0 .256-.048.496-.144.72-.875.032-1.67.208-2.384.528a.815.815 0 01-.4-.32c-.075-.15-.112-.352-.112-.608 0-.107.021-.31.064-.608-.171.395-.395.704-.672.928-.448.384-1.072.576-1.872.576-.726 0-1.286-.155-1.68-.464-.395-.31-.592-.752-.592-1.328 0-.907.426-1.552 1.28-1.936.853-.395 1.93-.683 3.232-.864 0-.47-.027-.821-.08-1.056a1.227 1.227 0 00-.272-.608 1.14 1.14 0 00-.896-.4c-.406 0-.71.17-.912.512-.192.341-.31.768-.352 1.28-.31 0-.571-.01-.784-.032a2.264 2.264 0 01-.56-.128c.021-.277.032-.501.032-.672 0-.448-.043-.864-.128-1.248a7.577 7.577 0 011.552-.48 8.502 8.502 0 011.664-.176c1.088 0 1.877.245 2.368.736.234.235.41.56.528.976.117.405.176.965.176 1.68v1.376c0 .363.021.635.064.816.042.17.128.293.256.368.128.075.33.117.608.128zm-3.263-2.208c-.726.128-1.27.299-1.632.512-.363.213-.544.544-.544.992 0 .288.069.507.208.656a.77.77 0 00.544.208c.234 0 .458-.075.672-.224.224-.15.405-.368.544-.656.138-.299.208-.656.208-1.072v-.416zm10.013-1.648a1.87 1.87 0 01-.544.208c-.224.053-.453.08-.688.08-.053-.437-.208-.8-.464-1.088-.256-.288-.608-.432-1.056-.432-.245 0-.443.064-.592.192a.595.595 0 00-.208.48c0 .17.037.315.112.432.075.117.234.25.48.4.256.139.64.31 1.152.512.619.245 1.093.48 1.424.704.341.213.581.453.72.72.15.256.224.565.224.928 0 .715-.304 1.275-.912 1.68-.598.395-1.419.592-2.464.592-.63 0-1.163-.048-1.6-.144a6.294 6.294 0 01-1.296-.416c.042-.267.064-.608.064-1.024a7.96 7.96 0 00-.048-.96c.15-.085.341-.15.576-.192.234-.053.47-.08.704-.08.053.576.218 1.019.496 1.328.277.299.634.448 1.072.448.31 0 .56-.07.752-.208a.698.698 0 00.288-.576.758.758 0 00-.304-.624c-.203-.17-.614-.379-1.232-.624-.555-.213-.992-.421-1.312-.624a2.205 2.205 0 01-.736-.736c-.17-.299-.256-.672-.256-1.12 0-.672.288-1.184.864-1.536.576-.352 1.29-.528 2.144-.528.555 0 1.035.043 1.44.128.405.075.79.203 1.152.384-.01.139-.016.357-.016.656 0 .395.021.741.064 1.04zm3.422 5.408c-.448 0-.806-.123-1.072-.368-.256-.256-.384-.597-.384-1.024 0-.416.144-.752.432-1.008.288-.267.656-.4 1.104-.4.394 0 .72.133.976.4.266.267.4.57.4.912 0 .437-.134.795-.4 1.072-.267.277-.619.416-1.056.416zm4.13-8.416c0-.437-.032-.757-.096-.96-.054-.213-.155-.363-.304-.448-.14-.096-.363-.16-.672-.192-.075-.235-.113-.565-.113-.992.544.032 1.36.048 2.448.048.928 0 1.712-.016 2.352-.048 0 .181-.005.357-.015.528a1.56 1.56 0 01-.096.464c-.3.032-.523.09-.672.176-.15.085-.256.235-.32.448-.054.213-.08.539-.08.976v5.712c0 .437.032.768.096.992.063.213.17.368.32.464.149.085.373.139.671.16.064.224.096.555.096.992A41.159 41.159 0 0055.139 40c-1.024 0-1.867.016-2.529.048 0-.384.038-.715.112-.992.3-.021.523-.075.673-.16.149-.096.25-.25.303-.464.064-.224.096-.555.096-.992v-5.712zm14.236 7.328c.085.203.128.533.128.992a65.95 65.95 0 00-2-.048 39.85 39.85 0 00-2.304.048c0-.437.043-.768.128-.992.31 0 .539-.112.688-.336.15-.224.224-.613.224-1.168v-1.68c0-.65-.101-1.11-.304-1.376-.192-.277-.49-.416-.896-.416-.427 0-.794.23-1.104.688-.299.448-.448 1.072-.448 1.872v1.024c0 .533.07.901.208 1.104.139.192.373.288.704.288.085.235.128.565.128.992-.459-.032-1.195-.048-2.208-.048-1.088 0-1.872.016-2.352.048 0-.459.043-.79.128-.992.416 0 .694-.096.832-.288.15-.192.224-.56.224-1.104v-2.368c0-.33-.026-.581-.08-.752a.635.635 0 00-.32-.384c-.16-.085-.416-.139-.768-.16 0-.416.064-.73.192-.944a10.4 10.4 0 001.648-.16c.533-.107.933-.23 1.2-.368.31.117.464.41.464.88 0 .288-.053.608-.16.96.022-.032.07-.133.144-.304.086-.181.187-.341.304-.48.256-.277.576-.507.96-.688.384-.192.81-.288 1.28-.288.736 0 1.344.213 1.824.64.49.416.736 1.072.736 1.968v2.448c0 .523.059.885.176 1.088.117.203.325.304.624.304zm7.075-6.384c.64 0 1.168-.016 1.584-.048 0 .459-.058.79-.176.992a1.209 1.209 0 00-.656.368c-.15.181-.32.507-.512.976l-2.192 4.992c-.277.139-.635.208-1.072.208-.117 0-.208-.005-.272-.016a81.774 81.774 0 00-1.28-2.896 81.484 81.484 0 00-1.264-2.656c-.181-.363-.336-.603-.464-.72a1.158 1.158 0 00-.512-.256 3.134 3.134 0 01-.144-.992c.48.032 1.195.048 2.144.048 1.067 0 1.856-.016 2.368-.048 0 .32-.053.65-.16.992-.288.021-.49.064-.608.128a.31.31 0 00-.176.288c0 .15.07.363.208.64.533 1.216.939 2.224 1.216 3.024.31-.81.672-1.696 1.088-2.656.15-.384.224-.667.224-.848 0-.181-.058-.315-.176-.4-.117-.096-.304-.155-.56-.176a2.774 2.774 0 01-.176-.992c.416.032.939.048 1.568.048zm8.704 5.504a.74.74 0 01.272.336c.085.16.133.325.144.496a4.053 4.053 0 01-1.376.864c-.512.181-1.104.272-1.776.272-1.302 0-2.278-.347-2.928-1.04-.64-.693-.96-1.6-.96-2.72 0-.757.154-1.424.464-2 .309-.587.746-1.04 1.312-1.36.565-.33 1.221-.496 1.968-.496 1.098 0 1.92.31 2.464.928.554.608.853 1.44.896 2.496-.064.31-.198.565-.4.768-1.835 0-3.259.027-4.272.08.096.661.32 1.184.672 1.568.352.373.853.56 1.504.56.373 0 .741-.064 1.104-.192.362-.139.666-.325.912-.56zM80.88 33.52c-.384 0-.699.192-.944.576-.235.373-.363.933-.384 1.68h2.544c0-.715-.107-1.27-.32-1.664-.203-.395-.502-.592-.896-.592zm10.283 1.216a1.87 1.87 0 01-.544.208c-.224.053-.454.08-.688.08-.054-.437-.208-.8-.464-1.088-.256-.288-.608-.432-1.056-.432-.246 0-.443.064-.592.192a.595.595 0 00-.208.48c0 .17.037.315.112.432.074.117.234.25.48.4.256.139.64.31 1.152.512.618.245 1.093.48 1.424.704.341.213.581.453.72.72.15.256.224.565.224.928 0 .715-.304 1.275-.912 1.68-.598.395-1.419.592-2.464.592-.63 0-1.163-.048-1.6-.144a6.294 6.294 0 01-1.296-.416c.042-.267.064-.608.064-1.024a7.96 7.96 0 00-.048-.96c.15-.085.341-.15.576-.192.234-.053.47-.08.704-.08.053.576.218 1.019.496 1.328.277.299.634.448 1.072.448.31 0 .56-.07.752-.208a.698.698 0 00.288-.576.758.758 0 00-.304-.624c-.203-.17-.614-.379-1.232-.624-.555-.213-.992-.421-1.312-.624a2.205 2.205 0 01-.736-.736c-.17-.299-.256-.672-.256-1.12 0-.672.288-1.184.864-1.536.576-.352 1.29-.528 2.144-.528.554 0 1.034.043 1.44.128.405.075.79.203 1.152.384-.01.139-.016.357-.016.656 0 .395.021.741.064 1.04zm4.546 5.408c-.768 0-1.339-.197-1.712-.592-.363-.395-.544-1.045-.544-1.952v-3.552c-.31-.128-.699-.197-1.168-.208 0-.395.058-.73.176-1.008h.992v-1.968a3.901 3.901 0 001.056-.288c.362-.15.656-.315.88-.496a.54.54 0 01.32.288c.053.128.08.363.08.704v1.76h1.968c0 .341-.054.683-.16 1.024-.715.021-1.318.107-1.808.256v3.232c0 .63.064 1.061.192 1.296.128.235.341.352.64.352.352 0 .677-.09.976-.272.138.192.218.459.24.8-.214.181-.523.33-.928.448a4.192 4.192 0 01-1.2.176zm17.343-1.088c.085.256.128.587.128.992-.363-.032-1.04-.048-2.032-.048-.95 0-1.707.016-2.272.048 0-.395.037-.725.112-.992.234-.021.416-.08.544-.176.138-.096.234-.267.288-.512.064-.245.096-.597.096-1.056V35.84c0-.65-.096-1.104-.288-1.36-.192-.267-.47-.4-.832-.4-.47 0-.854.224-1.152.672-.288.437-.432 1.067-.432 1.888v.96c0 .555.064.933.192 1.136.128.192.378.299.752.32.085.213.128.544.128.992-.352-.032-1.088-.048-2.208-.048-1.11 0-1.856.016-2.24.048 0-.437.042-.768.128-.992.266-.021.464-.075.592-.16.128-.096.218-.267.272-.512.053-.256.08-.64.08-1.152v-1.52c0-.608-.102-1.035-.304-1.28-.192-.256-.486-.384-.88-.384-.278 0-.534.107-.768.32-.235.203-.422.496-.56.88-.139.384-.208.837-.208 1.36v.992c0 .384.026.677.08.88.053.203.144.347.272.432.128.075.32.123.576.144.085.245.128.576.128.992-.342-.032-1.115-.048-2.32-.048-1.174 0-1.92.016-2.24.048 0-.416.042-.747.128-.992.298-.021.517-.07.656-.144a.65.65 0 00.304-.4c.064-.192.096-.475.096-.848v-2.24c0-.384-.027-.667-.08-.848a.582.582 0 00-.32-.416c-.16-.085-.416-.139-.768-.16 0-.384.064-.699.192-.944.49 0 1.013-.053 1.568-.16.565-.107.981-.23 1.248-.368.138.043.25.139.336.288.085.139.128.325.128.56 0 .192-.048.523-.144.992.181-.416.336-.688.464-.816.245-.288.56-.528.944-.72a2.785 2.785 0 011.264-.288c.512 0 .965.107 1.36.32.394.213.688.533.88.96.096.17.149.341.16.512a3.17 3.17 0 01.496-.784c.234-.267.533-.485.896-.656.362-.17.762-.256 1.2-.256.81 0 1.434.219 1.872.656.448.427.672 1.115.672 2.064v1.872c0 .533.021.923.064 1.168.042.245.117.41.224.496.117.085.293.139.528.16zm7.537-.88c.107.064.197.176.272.336.085.16.133.325.144.496a4.05 4.05 0 01-1.376.864c-.512.181-1.104.272-1.776.272-1.301 0-2.277-.347-2.928-1.04-.64-.693-.96-1.6-.96-2.72 0-.757.155-1.424.464-2a3.291 3.291 0 011.312-1.36c.565-.33 1.221-.496 1.968-.496 1.099 0 1.92.31 2.464.928.555.608.853 1.44.896 2.496a1.48 1.48 0 01-.4.768c-1.835 0-3.259.027-4.272.08.096.661.32 1.184.672 1.568.352.373.853.56 1.504.56.373 0 .741-.064 1.104-.192.363-.139.667-.325.912-.56zm-2.928-4.656c-.384 0-.699.192-.944.576-.235.373-.363.933-.384 1.68h2.544c0-.715-.107-1.27-.32-1.664-.203-.395-.501-.592-.896-.592zm13.915 5.536c.085.203.128.533.128.992a65.978 65.978 0 00-2-.048 39.83 39.83 0 00-2.304.048c0-.437.043-.768.128-.992.309 0 .539-.112.688-.336.149-.224.224-.613.224-1.168v-1.68c0-.65-.101-1.11-.304-1.376-.192-.277-.491-.416-.896-.416-.427 0-.795.23-1.104.688-.299.448-.448 1.072-.448 1.872v1.024c0 .533.069.901.208 1.104.139.192.373.288.704.288.085.235.128.565.128.992-.459-.032-1.195-.048-2.208-.048-1.088 0-1.872.016-2.352.048 0-.459.043-.79.128-.992.416 0 .693-.096.832-.288.149-.192.224-.56.224-1.104v-2.368c0-.33-.027-.581-.08-.752a.634.634 0 00-.32-.384c-.16-.085-.416-.139-.768-.16 0-.416.064-.73.192-.944a10.4 10.4 0 001.648-.16c.533-.107.933-.23 1.2-.368.309.117.464.41.464.88 0 .288-.053.608-.16.96.021-.032.069-.133.144-.304.085-.181.187-.341.304-.48.256-.277.576-.507.96-.688a2.823 2.823 0 011.28-.288c.736 0 1.344.213 1.824.64.491.416.736 1.072.736 1.968v2.448c0 .523.059.885.176 1.088.117.203.325.304.624.304zm4.148 1.088c-.768 0-1.338-.197-1.712-.592-.362-.395-.544-1.045-.544-1.952v-3.552c-.309-.128-.698-.197-1.168-.208 0-.395.059-.73.176-1.008h.992v-1.968a3.901 3.901 0 001.056-.288c.363-.15.656-.315.88-.496.16.064.267.16.32.288.054.128.08.363.08.704v1.76h1.968c0 .341-.053.683-.16 1.024-.714.021-1.317.107-1.808.256v3.232c0 .63.064 1.061.192 1.296.128.235.342.352.64.352.352 0 .678-.09.976-.272.139.192.219.459.24.8-.213.181-.522.33-.928.448a4.184 4.184 0 01-1.2.176zm8.751-5.408c-.138.085-.32.155-.544.208a2.96 2.96 0 01-.688.08c-.053-.437-.208-.8-.464-1.088-.256-.288-.608-.432-1.056-.432-.245 0-.442.064-.592.192a.598.598 0 00-.208.48c0 .17.038.315.112.432.075.117.235.25.48.4.256.139.64.31 1.152.512.619.245 1.094.48 1.424.704.342.213.582.453.72.72.15.256.224.565.224.928 0 .715-.304 1.275-.912 1.68-.597.395-1.418.592-2.464.592-.629 0-1.162-.048-1.6-.144a6.321 6.321 0 01-1.296-.416c.043-.267.064-.608.064-1.024a7.96 7.96 0 00-.048-.96c.15-.085.342-.15.576-.192.235-.053.47-.08.704-.08.054.576.219 1.019.496 1.328.278.299.635.448 1.072.448.31 0 .56-.07.752-.208a.698.698 0 00.288-.576.757.757 0 00-.304-.624c-.202-.17-.613-.379-1.232-.624-.554-.213-.992-.421-1.312-.624a2.209 2.209 0 01-.736-.736c-.17-.299-.256-.672-.256-1.12 0-.672.288-1.184.864-1.536.576-.352 1.291-.528 2.144-.528.555 0 1.035.043 1.44.128.406.075.79.203 1.152.384-.01.139-.016.357-.016.656 0 .395.022.741.064 1.04z" fill="#FAF8F5"/></svg><svg fill="none" viewBox="0 0 47 41" id="logo_mobile" xmlns="http://www.w3.org/2000/svg"><path fill-rule="evenodd" clip-rule="evenodd" d="M35.93 0L7.954 20h31.974L35.931 0zM11.95 0l9.327 8.182L7.953 20 11.95 0z" fill="#FFE4AD"/><path d="M15.095 39.04c.064.245.096.581.096 1.008C14.743 40.016 13.88 40 12.6 40c-.587 0-1.328.016-2.224.048 0-.31.037-.64.112-.992.395-.043.661-.128.8-.256.139-.139.208-.395.208-.768 0-.117-.021-.421-.064-.912l-.512-4.896-3.136 7.792c-.213.085-.533.128-.96.128l-3.536-7.888-.432 4.304a9.2 9.2 0 00-.064 1.04c0 .533.08.901.24 1.104.16.203.432.32.816.352.064.245.096.576.096.992-.395-.032-.97-.048-1.728-.048-.49 0-1.104.016-1.84.048 0-.373.037-.704.112-.992.288-.021.517-.101.688-.24.17-.15.304-.4.4-.752.107-.352.192-.864.256-1.536l.416-4.688c.021-.277.032-.47.032-.576 0-.427-.08-.72-.24-.88-.16-.17-.432-.256-.816-.256-.075-.235-.112-.565-.112-.992.416.032 1.013.048 1.792.048.79 0 1.37-.016 1.744-.048l3.392 7.776 2.928-7.776c.48.032 1.093.048 1.84.048.704 0 1.285-.016 1.744-.048 0 .405-.037.736-.112.992-.384 0-.661.09-.832.272-.17.181-.256.501-.256.96 0 .096.01.272.032.528l.512 5.04c.064.597.133 1.04.208 1.328.085.277.197.47.336.576.15.107.368.176.656.208zm3.132-7.744c-.394 0-.714-.101-.96-.304a1.05 1.05 0 01-.368-.832c0-.373.128-.667.384-.88.267-.224.603-.336 1.008-.336.438 0 .774.107 1.008.32.246.213.368.507.368.88 0 .33-.133.608-.4.832-.256.213-.602.32-1.04.32zm-2.16 8.752c0-.427.038-.757.112-.992.427-.021.71-.123.848-.304.15-.192.224-.555.224-1.088V35.12c0-.395-.08-.672-.24-.832-.149-.17-.464-.267-.944-.288 0-.405.06-.72.176-.944.523 0 1.072-.053 1.648-.16.576-.117.987-.24 1.232-.368.31.128.464.41.464.848v4.288c0 .533.07.896.208 1.088.14.181.406.283.8.304.064.203.096.533.096.992-.458-.032-1.226-.048-2.304-.048-1.098 0-1.872.016-2.32.048zm14.286-1.216c0 .299-.053.56-.16.784a7.47 7.47 0 00-1.248.176 6 6 0 00-1.168.352.853.853 0 01-.4-.304c-.075-.139-.112-.341-.112-.608 0-.235.032-.485.096-.752-.17.32-.368.581-.592.784-.192.224-.48.427-.864.608s-.8.272-1.248.272c-.97 0-1.739-.277-2.304-.832-.565-.565-.848-1.413-.848-2.544 0-.81.181-1.536.544-2.176a3.94 3.94 0 011.552-1.52c.672-.363 1.44-.544 2.304-.544.405 0 .79.053 1.152.16V31.12c0-.395-.075-.672-.224-.832-.15-.17-.47-.267-.96-.288 0-.405.059-.72.176-.944.533 0 1.083-.053 1.648-.16.576-.107.987-.23 1.232-.368.31.128.464.41.464.848v7.92c0 .363.021.635.064.816.043.17.128.293.256.368.139.064.347.101.624.112l.016.24zm-4.944 0c.459 0 .848-.219 1.168-.656.32-.448.48-1.13.48-2.048v-2.096a1.702 1.702 0 00-.544-.4 1.349 1.349 0 00-.64-.144c-.512 0-.965.219-1.36.656-.395.427-.592 1.184-.592 2.272 0 .736.133 1.323.4 1.76.277.437.64.656 1.088.656zm13.7-.24c.011.064.017.165.017.304 0 .256-.048.496-.144.72-.875.032-1.67.208-2.384.528a.814.814 0 01-.4-.32c-.075-.15-.112-.352-.112-.608 0-.107.021-.31.064-.608-.17.395-.395.704-.672.928-.448.384-1.072.576-1.872.576-.726 0-1.285-.155-1.68-.464-.395-.31-.592-.752-.592-1.328 0-.907.427-1.552 1.28-1.936.853-.395 1.93-.683 3.232-.864 0-.47-.027-.821-.08-1.056a1.228 1.228 0 00-.272-.608 1.14 1.14 0 00-.896-.4c-.405 0-.71.17-.912.512-.192.341-.31.768-.352 1.28-.31 0-.57-.01-.784-.032a2.263 2.263 0 01-.56-.128 9.18 9.18 0 00.032-.672c0-.448-.043-.864-.128-1.248a7.577 7.577 0 011.552-.48 8.502 8.502 0 011.664-.176c1.088 0 1.877.245 2.368.736.234.235.41.56.528.976.117.405.176.965.176 1.68v1.376c0 .363.021.635.064.816.042.17.128.293.256.368.128.075.33.117.608.128zm-3.263-2.208c-.725.128-1.27.299-1.632.512-.363.213-.544.544-.544.992 0 .288.07.507.208.656a.77.77 0 00.544.208c.235 0 .459-.075.672-.224.224-.15.405-.368.544-.656.139-.299.208-.656.208-1.072v-.416zm10.013-1.648a1.87 1.87 0 01-.544.208c-.224.053-.453.08-.688.08-.053-.437-.208-.8-.464-1.088-.256-.288-.608-.432-1.056-.432-.245 0-.443.064-.592.192a.595.595 0 00-.208.48c0 .17.037.315.112.432.075.117.235.25.48.4.256.139.64.31 1.152.512.619.245 1.093.48 1.424.704.341.213.581.453.72.72.15.256.224.565.224.928 0 .715-.304 1.275-.912 1.68-.597.395-1.419.592-2.464.592-.63 0-1.163-.048-1.6-.144a6.294 6.294 0 01-1.296-.416c.043-.267.064-.608.064-1.024a7.96 7.96 0 00-.048-.96c.15-.085.341-.15.576-.192.235-.053.47-.08.704-.08.053.576.219 1.019.496 1.328.277.299.635.448 1.072.448.31 0 .56-.07.752-.208a.698.698 0 00.288-.576.758.758 0 00-.304-.624c-.203-.17-.613-.379-1.232-.624-.555-.213-.992-.421-1.312-.624a2.205 2.205 0 01-.736-.736c-.17-.299-.256-.672-.256-1.12 0-.672.288-1.184.864-1.536.576-.352 1.29-.528 2.144-.528.555 0 1.035.043 1.44.128.405.075.79.203 1.152.384-.01.139-.016.357-.016.656 0 .395.021.741.064 1.04z" fill="#FAF8F5"/></svg></svg>